<?xml version="1.0" encoding="UTF-8"?>
<svg width="18px" height="18px" viewBox="0 0 18 18" version="1.1" xmlns="http://www.w3.org/2000/svg" xmlns:xlink="http://www.w3.org/1999/xlink">
    <!-- Generator: sketchtool 40.3 (33839) - http://www.bohemiancoding.com/sketch -->
    <title>357EC340-990C-4F86-987C-5F5D536E68C4</title>
    <desc>Created with sketchtool.</desc>
    <defs></defs>
    <g id="Page-1" stroke="none" stroke-width="1" fill="none" fill-rule="evenodd">
        <g id="support" transform="translate(-524.000000, -275.000000)" fill="#B1BFC7">
            <g id="top-part" transform="translate(0.000000, 76.000000)">
                <g id="search-input" transform="translate(510.000000, 184.000000)">
                    <path d="M21.055,16.008 C17.715,16.008 15.0075,18.7155 15.0075,22.0555 C15.0075,25.395 17.715,28.1025 21.055,28.1025 C24.395,28.1025 27.1025,25.395 27.1025,22.0555 C27.1025,18.7155 24.395,16.008 21.055,16.008 L21.055,16.008 Z M31.994,32.2815 L31.281,32.9945 L25.67,27.3835 C24.4325,28.456 22.8215,29.1105 21.055,29.1105 C17.1585,29.1105 14,25.952 14,22.0555 C14,18.159 17.1585,15 21.055,15 C24.9515,15 28.11,18.159 28.11,22.0555 C28.11,23.822 27.456,25.433 26.383,26.6705 L31.994,32.2815 Z" id="Fill-1"></path>
                </g>
            </g>
        </g>
    </g>
</svg>